<mxfile host="app.diagrams.net" modified="2023-10-15T00:15:05.366Z" agent="Mozilla/5.0 (Windows NT 10.0; Win64; x64) AppleWebKit/537.36 (KHTML, like Gecko) Chrome/117.0.0.0 Safari/537.36 Edg/117.0.2045.60" etag="qZnDB38lFNjHN3oiN6YZ" version="21.7.5" type="github">
  <diagram id="C5RBs43oDa-KdzZeNtuy" name="Page-1">
    <mxGraphModel dx="2505" dy="3823" grid="1" gridSize="10" guides="1" tooltips="1" connect="1" arrows="1" fold="1" page="1" pageScale="1" pageWidth="200" pageHeight="150" math="0" shadow="0">
      <root>
        <mxCell id="WIyWlLk6GJQsqaUBKTNV-0" />
        <mxCell id="WIyWlLk6GJQsqaUBKTNV-1" parent="WIyWlLk6GJQsqaUBKTNV-0" />
        <mxCell id="oeyPdxeXq-uHNHkCoqnj-98" value="Início" style="html=1;overflow=block;blockSpacing=1;whiteSpace=wrap;rounded=1;arcSize=50;fontSize=20;fontFamily=Helvetica;fontColor=#3d4752;align=center;spacing=11.3;strokeColor=#3d4752;strokeOpacity=100;fillOpacity=100;shadow=1;fillColor=#ffdba9;strokeWidth=3;lucidId=YGcM8_aNu0eV;" vertex="1" parent="WIyWlLk6GJQsqaUBKTNV-1">
          <mxGeometry x="328" y="-2314" width="132" height="60" as="geometry" />
        </mxCell>
        <mxCell id="oeyPdxeXq-uHNHkCoqnj-99" value="Recebe matéria prima do fornecedor" style="html=1;overflow=block;blockSpacing=1;whiteSpace=wrap;fontSize=20;fontFamily=Helvetica;fontColor=#3d4752;align=center;spacing=11.3;strokeColor=#3d4752;strokeOpacity=100;fillOpacity=100;rounded=1;absoluteArcSize=1;arcSize=12;shadow=1;fillColor=#ffffff;strokeWidth=3;lucidId=YGcM0Bxgonje;" vertex="1" parent="WIyWlLk6GJQsqaUBKTNV-1">
          <mxGeometry x="304" y="-2219" width="180" height="99" as="geometry" />
        </mxCell>
        <mxCell id="oeyPdxeXq-uHNHkCoqnj-100" value="" style="html=1;jettySize=18;whiteSpace=wrap;fontSize=13;fontFamily=Helvetica;strokeColor=#3d4752;strokeOpacity=100;strokeWidth=3;rounded=1;arcSize=0;edgeStyle=orthogonalEdgeStyle;startArrow=none;endArrow=block;endFill=1;exitX=0.5;exitY=1.025;exitPerimeter=0;entryX=0.5;entryY=-0.015;entryPerimeter=0;lucidId=YGcMHoneriRA;" edge="1" parent="WIyWlLk6GJQsqaUBKTNV-1" source="oeyPdxeXq-uHNHkCoqnj-98" target="oeyPdxeXq-uHNHkCoqnj-99">
          <mxGeometry width="100" height="100" relative="1" as="geometry">
            <Array as="points" />
          </mxGeometry>
        </mxCell>
        <mxCell id="oeyPdxeXq-uHNHkCoqnj-101" value="Separa matéria prima" style="html=1;overflow=block;blockSpacing=1;whiteSpace=wrap;fontSize=20;fontFamily=Helvetica;fontColor=#3d4752;align=center;spacing=11.3;strokeColor=#3d4752;strokeOpacity=100;fillOpacity=100;rounded=1;absoluteArcSize=1;arcSize=12;shadow=1;fillColor=#ffffff;strokeWidth=3;lucidId=8FcwCl-OisNj;" vertex="1" parent="WIyWlLk6GJQsqaUBKTNV-1">
          <mxGeometry x="308" y="-2080" width="180" height="90" as="geometry" />
        </mxCell>
        <mxCell id="oeyPdxeXq-uHNHkCoqnj-102" value="" style="html=1;jettySize=18;whiteSpace=wrap;fontSize=13;fontFamily=Helvetica;strokeColor=#3d4752;strokeOpacity=100;strokeWidth=3;rounded=1;arcSize=0;edgeStyle=orthogonalEdgeStyle;startArrow=none;endArrow=block;endFill=1;exitX=0.52;exitY=1.015;exitPerimeter=0;lucidId=tGcwjThB-EDp;" edge="1" parent="WIyWlLk6GJQsqaUBKTNV-1" source="oeyPdxeXq-uHNHkCoqnj-99">
          <mxGeometry width="100" height="100" relative="1" as="geometry">
            <Array as="points" />
            <mxPoint x="398" y="-2080" as="targetPoint" />
          </mxGeometry>
        </mxCell>
        <mxCell id="oeyPdxeXq-uHNHkCoqnj-103" value="Frascos de PET e vidros de vários tamanhos" style="html=1;overflow=block;blockSpacing=1;whiteSpace=wrap;fontSize=20;fontFamily=Helvetica;fontColor=#3d4752;align=center;spacing=11.3;strokeColor=#3d4752;strokeOpacity=100;fillOpacity=100;rounded=1;absoluteArcSize=1;arcSize=12;shadow=1;fillColor=#ffffff;strokeWidth=3;lucidId=WHcwYnl.YxyO;" vertex="1" parent="WIyWlLk6GJQsqaUBKTNV-1">
          <mxGeometry x="877" y="-1985" width="180" height="99" as="geometry" />
        </mxCell>
        <mxCell id="oeyPdxeXq-uHNHkCoqnj-104" value="Óleo essencial (2,5 - 100) ml" style="html=1;overflow=block;blockSpacing=1;whiteSpace=wrap;fontSize=20;fontFamily=Helvetica;fontColor=#3d4752;align=center;spacing=11.3;strokeColor=#3d4752;strokeOpacity=100;fillOpacity=100;rounded=1;absoluteArcSize=1;arcSize=12;shadow=1;fillColor=#ffffff;strokeWidth=3;lucidId=nIcwTGv3Z-u6;" vertex="1" parent="WIyWlLk6GJQsqaUBKTNV-1">
          <mxGeometry x="524" y="-1985" width="310" height="51" as="geometry" />
        </mxCell>
        <mxCell id="oeyPdxeXq-uHNHkCoqnj-105" value="Espátula, sacos plásticos, válvulas, gatilhos, spray, tampas, varetas, papel de seda, cordão, fitas, adesivos, flores artificiais, etiquetas de segurança" style="html=1;overflow=block;blockSpacing=1;whiteSpace=wrap;fontSize=20;fontFamily=Helvetica;fontColor=#3d4752;align=center;spacing=11.3;strokeColor=#3d4752;strokeOpacity=100;fillOpacity=100;rounded=1;absoluteArcSize=1;arcSize=12;shadow=1;fillColor=#ffffff;strokeWidth=3;lucidId=qLcwK6qHrBlZ;" vertex="1" parent="WIyWlLk6GJQsqaUBKTNV-1">
          <mxGeometry x="1109" y="-2002" width="180" height="310" as="geometry" />
        </mxCell>
        <mxCell id="oeyPdxeXq-uHNHkCoqnj-106" value="Becker de vários tamanhos" style="html=1;overflow=block;blockSpacing=1;whiteSpace=wrap;fontSize=20;fontFamily=Helvetica;fontColor=#3d4752;align=center;spacing=11.3;strokeColor=#3d4752;strokeOpacity=100;fillOpacity=100;rounded=1;absoluteArcSize=1;arcSize=12;shadow=1;fillColor=#ffffff;strokeWidth=3;lucidId=BNcwj2-kDnB~;" vertex="1" parent="WIyWlLk6GJQsqaUBKTNV-1">
          <mxGeometry x="68" y="-1914.53" width="180" height="90" as="geometry" />
        </mxCell>
        <mxCell id="oeyPdxeXq-uHNHkCoqnj-107" value="" style="html=1;jettySize=18;whiteSpace=wrap;fontSize=13;fontFamily=Helvetica;strokeColor=#3d4752;strokeOpacity=100;strokeWidth=3;rounded=1;arcSize=0;edgeStyle=orthogonalEdgeStyle;startArrow=none;endArrow=block;endFill=1;exitX=1.008;exitY=0.5;exitPerimeter=0;entryX=0.5;entryY=-0.015;entryPerimeter=0;lucidId=3NcwxWJQVx71;" edge="1" parent="WIyWlLk6GJQsqaUBKTNV-1" source="oeyPdxeXq-uHNHkCoqnj-101" target="oeyPdxeXq-uHNHkCoqnj-103">
          <mxGeometry width="100" height="100" relative="1" as="geometry">
            <Array as="points" />
          </mxGeometry>
        </mxCell>
        <mxCell id="oeyPdxeXq-uHNHkCoqnj-108" value="" style="html=1;jettySize=18;whiteSpace=wrap;fontSize=13;fontFamily=Helvetica;strokeColor=#3d4752;strokeOpacity=100;strokeWidth=3;rounded=1;arcSize=0;edgeStyle=orthogonalEdgeStyle;startArrow=none;endArrow=block;endFill=1;exitX=1.008;exitY=0.5;exitPerimeter=0;entryX=0.5;entryY=-0.005;entryPerimeter=0;lucidId=nOcwFCslH8xz;" edge="1" parent="WIyWlLk6GJQsqaUBKTNV-1" source="oeyPdxeXq-uHNHkCoqnj-101" target="oeyPdxeXq-uHNHkCoqnj-105">
          <mxGeometry width="100" height="100" relative="1" as="geometry">
            <Array as="points">
              <mxPoint x="1199" y="-2035" />
            </Array>
          </mxGeometry>
        </mxCell>
        <mxCell id="oeyPdxeXq-uHNHkCoqnj-109" value="Prepara bancada para higienização" style="html=1;overflow=block;blockSpacing=1;whiteSpace=wrap;fontSize=20;fontFamily=Helvetica;fontColor=#3d4752;align=center;spacing=11.3;strokeColor=#3d4752;strokeOpacity=100;fillOpacity=100;rounded=1;absoluteArcSize=1;arcSize=12;shadow=1;fillColor=#ffffff;strokeWidth=3;lucidId=2QcwhOX226Wk;" vertex="1" parent="WIyWlLk6GJQsqaUBKTNV-1">
          <mxGeometry x="308" y="-1914.53" width="180" height="90" as="geometry" />
        </mxCell>
        <mxCell id="oeyPdxeXq-uHNHkCoqnj-110" value="" style="html=1;jettySize=18;whiteSpace=wrap;fontSize=13;fontFamily=Helvetica;strokeColor=#3d4752;strokeOpacity=100;strokeWidth=3;rounded=1;arcSize=0;edgeStyle=orthogonalEdgeStyle;startArrow=none;endArrow=block;endFill=1;exitX=0.5;exitY=1;entryX=0.5;entryY=-0.017;entryPerimeter=0;lucidId=9Rcwi3bHZadr;exitDx=0;exitDy=0;" edge="1" parent="WIyWlLk6GJQsqaUBKTNV-1" source="oeyPdxeXq-uHNHkCoqnj-101" target="oeyPdxeXq-uHNHkCoqnj-109">
          <mxGeometry width="100" height="100" relative="1" as="geometry">
            <Array as="points" />
            <mxPoint x="398" y="-1943.9999999999998" as="sourcePoint" />
          </mxGeometry>
        </mxCell>
        <mxCell id="oeyPdxeXq-uHNHkCoqnj-111" value="Mistura" style="html=1;overflow=block;blockSpacing=1;whiteSpace=wrap;fontSize=20;fontFamily=Helvetica;fontColor=#3d4752;align=center;spacing=11.3;strokeColor=#3d4752;strokeOpacity=100;fillOpacity=100;rounded=1;absoluteArcSize=1;arcSize=12;shadow=1;fillColor=#ffffff;strokeWidth=3;lucidId=0Scwd76Dw3pD;" vertex="1" parent="WIyWlLk6GJQsqaUBKTNV-1">
          <mxGeometry x="308" y="-1734" width="180" height="90" as="geometry" />
        </mxCell>
        <mxCell id="oeyPdxeXq-uHNHkCoqnj-112" value="" style="html=1;jettySize=18;whiteSpace=wrap;fontSize=13;fontFamily=Helvetica;strokeColor=#3d4752;strokeOpacity=100;strokeWidth=3;rounded=1;arcSize=0;edgeStyle=orthogonalEdgeStyle;startArrow=none;endArrow=block;endFill=1;exitX=0.496;exitY=1.017;exitPerimeter=0;entryX=0.496;entryY=-0.017;entryPerimeter=0;lucidId=cTcwrEz4fAhM;" edge="1" parent="WIyWlLk6GJQsqaUBKTNV-1" source="oeyPdxeXq-uHNHkCoqnj-109" target="oeyPdxeXq-uHNHkCoqnj-111">
          <mxGeometry width="100" height="100" relative="1" as="geometry">
            <Array as="points" />
          </mxGeometry>
        </mxCell>
        <mxCell id="oeyPdxeXq-uHNHkCoqnj-113" value="Higienização dos frascos" style="html=1;overflow=block;blockSpacing=1;whiteSpace=wrap;fontSize=20;fontFamily=Helvetica;fontColor=#3d4752;align=center;spacing=11.3;strokeColor=#3d4752;strokeOpacity=100;fillOpacity=100;rounded=1;absoluteArcSize=1;arcSize=12;shadow=1;fillColor=#ffffff;strokeWidth=3;lucidId=1TcwZC0Htjau;" vertex="1" parent="WIyWlLk6GJQsqaUBKTNV-1">
          <mxGeometry x="877" y="-1844" width="180" height="90" as="geometry" />
        </mxCell>
        <mxCell id="oeyPdxeXq-uHNHkCoqnj-114" value="" style="html=1;jettySize=18;whiteSpace=wrap;fontSize=13;fontFamily=Helvetica;strokeColor=#3d4752;strokeOpacity=100;strokeWidth=3;rounded=1;arcSize=0;edgeStyle=orthogonalEdgeStyle;startArrow=none;endArrow=block;endFill=1;exitX=1.008;exitY=0.5;exitPerimeter=0;entryX=0.5;entryY=-0.01;entryPerimeter=0;lucidId=-UcwboVh97pr;" edge="1" parent="WIyWlLk6GJQsqaUBKTNV-1" source="oeyPdxeXq-uHNHkCoqnj-101" target="oeyPdxeXq-uHNHkCoqnj-104">
          <mxGeometry width="100" height="100" relative="1" as="geometry">
            <Array as="points" />
          </mxGeometry>
        </mxCell>
        <mxCell id="oeyPdxeXq-uHNHkCoqnj-115" value="" style="html=1;jettySize=18;whiteSpace=wrap;fontSize=13;fontFamily=Helvetica;strokeColor=#3d4752;strokeOpacity=100;strokeWidth=3;rounded=1;arcSize=0;edgeStyle=orthogonalEdgeStyle;startArrow=none;endArrow=block;endFill=1;exitX=0.48;exitY=1.015;exitPerimeter=0;entryX=0.48;entryY=-0.017;entryPerimeter=0;lucidId=FVcwiRzkbgAg;" edge="1" parent="WIyWlLk6GJQsqaUBKTNV-1" source="oeyPdxeXq-uHNHkCoqnj-103" target="oeyPdxeXq-uHNHkCoqnj-113">
          <mxGeometry width="100" height="100" relative="1" as="geometry">
            <Array as="points" />
          </mxGeometry>
        </mxCell>
        <mxCell id="oeyPdxeXq-uHNHkCoqnj-116" value="Precisa de maceração?" style="html=1;overflow=block;blockSpacing=1;whiteSpace=wrap;rhombus;fontSize=20;fontFamily=Helvetica;fontColor=#3d4752;align=center;spacing=11.3;strokeColor=#3d4752;strokeOpacity=100;fillOpacity=100;rounded=1;absoluteArcSize=1;arcSize=12;shadow=1;fillColor=#ffffff;strokeWidth=3;lucidId=MWcw1JKQZg.j;" vertex="1" parent="WIyWlLk6GJQsqaUBKTNV-1">
          <mxGeometry x="320" y="-1571" width="155" height="121" as="geometry" />
        </mxCell>
        <mxCell id="oeyPdxeXq-uHNHkCoqnj-117" value="" style="html=1;jettySize=18;whiteSpace=wrap;fontSize=16.7;fontFamily=Helvetica;fontStyle=1;strokeColor=#3d4752;strokeOpacity=100;strokeWidth=3;rounded=1;arcSize=0;edgeStyle=orthogonalEdgeStyle;startArrow=none;endArrow=block;endFill=1;exitX=0.991;exitY=0.5;exitPerimeter=0;entryX=-0.008;entryY=0.461;entryPerimeter=0;lucidId=IXcw-OvC-R-s;" edge="1" parent="WIyWlLk6GJQsqaUBKTNV-1" source="oeyPdxeXq-uHNHkCoqnj-116" target="oeyPdxeXq-uHNHkCoqnj-122">
          <mxGeometry width="100" height="100" relative="1" as="geometry">
            <Array as="points" />
          </mxGeometry>
        </mxCell>
        <mxCell id="oeyPdxeXq-uHNHkCoqnj-118" value="YES" style="text;html=1;resizable=0;labelBackgroundColor=default;align=center;verticalAlign=middle;fontStyle=1;fontSize=16.7;" vertex="1" parent="oeyPdxeXq-uHNHkCoqnj-117">
          <mxGeometry x="-0.6616733776927339" relative="1" as="geometry">
            <mxPoint as="offset" />
          </mxGeometry>
        </mxCell>
        <mxCell id="oeyPdxeXq-uHNHkCoqnj-119" value="Filtração" style="html=1;overflow=block;blockSpacing=1;whiteSpace=wrap;fontSize=20;fontFamily=Helvetica;fontColor=#3d4752;align=center;spacing=11.3;strokeColor=#3d4752;strokeOpacity=100;fillOpacity=100;rounded=1;absoluteArcSize=1;arcSize=12;shadow=1;fillColor=#ffffff;strokeWidth=3;lucidId=ZXcw~A__WTcA;" vertex="1" parent="WIyWlLk6GJQsqaUBKTNV-1">
          <mxGeometry x="308" y="-1371" width="180" height="90" as="geometry" />
        </mxCell>
        <mxCell id="oeyPdxeXq-uHNHkCoqnj-120" value="" style="html=1;jettySize=18;whiteSpace=wrap;fontSize=16.7;fontFamily=Helvetica;fontStyle=1;strokeColor=#3d4752;strokeOpacity=100;strokeWidth=3;rounded=1;arcSize=0;edgeStyle=orthogonalEdgeStyle;startArrow=none;endArrow=block;endFill=1;exitX=0.5;exitY=0.995;exitPerimeter=0;entryX=0.5;entryY=-0.017;entryPerimeter=0;lucidId=AYcwqezpHVg7;" edge="1" parent="WIyWlLk6GJQsqaUBKTNV-1" source="oeyPdxeXq-uHNHkCoqnj-116" target="oeyPdxeXq-uHNHkCoqnj-119">
          <mxGeometry width="100" height="100" relative="1" as="geometry">
            <Array as="points" />
          </mxGeometry>
        </mxCell>
        <mxCell id="oeyPdxeXq-uHNHkCoqnj-121" value="NO" style="text;html=1;resizable=0;labelBackgroundColor=default;align=center;verticalAlign=middle;fontStyle=1;fontSize=16.7;" vertex="1" parent="oeyPdxeXq-uHNHkCoqnj-120">
          <mxGeometry relative="1" as="geometry" />
        </mxCell>
        <mxCell id="oeyPdxeXq-uHNHkCoqnj-122" value="Deixa produto pelo período de maceração" style="html=1;overflow=block;blockSpacing=1;whiteSpace=wrap;fontSize=20;fontFamily=Helvetica;fontColor=#3d4752;align=center;spacing=11.3;strokeColor=#3d4752;strokeOpacity=100;fillOpacity=100;rounded=1;absoluteArcSize=1;arcSize=12;shadow=1;fillColor=#ffffff;strokeWidth=3;lucidId=NYcw1ag34D01;" vertex="1" parent="WIyWlLk6GJQsqaUBKTNV-1">
          <mxGeometry x="572" y="-1556" width="180" height="99" as="geometry" />
        </mxCell>
        <mxCell id="oeyPdxeXq-uHNHkCoqnj-123" value="" style="html=1;jettySize=18;whiteSpace=wrap;fontSize=13;fontFamily=Helvetica;strokeColor=#3d4752;strokeOpacity=100;strokeWidth=3;rounded=1;arcSize=0;edgeStyle=orthogonalEdgeStyle;startArrow=none;endArrow=block;endFill=1;exitX=0.5;exitY=1.017;exitPerimeter=0;entryX=0.5;entryY=0.005;entryPerimeter=0;lucidId=sZcwaonJgHd_;" edge="1" parent="WIyWlLk6GJQsqaUBKTNV-1" source="oeyPdxeXq-uHNHkCoqnj-111" target="oeyPdxeXq-uHNHkCoqnj-116">
          <mxGeometry width="100" height="100" relative="1" as="geometry">
            <Array as="points" />
          </mxGeometry>
        </mxCell>
        <mxCell id="oeyPdxeXq-uHNHkCoqnj-124" value="" style="html=1;jettySize=18;whiteSpace=wrap;fontSize=13;fontFamily=Helvetica;strokeColor=#3d4752;strokeOpacity=100;strokeWidth=3;rounded=1;arcSize=0;edgeStyle=orthogonalEdgeStyle;startArrow=none;endArrow=block;endFill=1;exitX=0.5;exitY=1.015;exitPerimeter=0;entryX=1.008;entryY=0.5;entryPerimeter=0;lucidId=BZcwC6.gD~DS;" edge="1" parent="WIyWlLk6GJQsqaUBKTNV-1" source="oeyPdxeXq-uHNHkCoqnj-122" target="oeyPdxeXq-uHNHkCoqnj-119">
          <mxGeometry width="100" height="100" relative="1" as="geometry">
            <Array as="points">
              <mxPoint x="660" y="-1455" />
              <mxPoint x="660" y="-1326" />
            </Array>
          </mxGeometry>
        </mxCell>
        <mxCell id="oeyPdxeXq-uHNHkCoqnj-125" value="Envase" style="html=1;overflow=block;blockSpacing=1;whiteSpace=wrap;fontSize=20;fontFamily=Helvetica;fontColor=#3d4752;align=center;spacing=11.3;strokeColor=#3d4752;strokeOpacity=100;fillOpacity=100;rounded=1;absoluteArcSize=1;arcSize=12;shadow=1;fillColor=#ffffff;strokeWidth=3;lucidId=q0cwf0W-6g7t;" vertex="1" parent="WIyWlLk6GJQsqaUBKTNV-1">
          <mxGeometry x="304" y="-1229" width="180" height="90" as="geometry" />
        </mxCell>
        <mxCell id="oeyPdxeXq-uHNHkCoqnj-126" value="Final" style="html=1;overflow=block;blockSpacing=1;whiteSpace=wrap;rounded=1;arcSize=50;fontSize=20;fontFamily=Helvetica;fontColor=#3d4752;align=center;spacing=11.3;strokeColor=#3d4752;strokeOpacity=100;fillOpacity=100;shadow=1;fillColor=#ffdba9;strokeWidth=3;lucidId=t1cwyaAYWCxq;" vertex="1" parent="WIyWlLk6GJQsqaUBKTNV-1">
          <mxGeometry x="327" y="-60" width="132" height="60" as="geometry" />
        </mxCell>
        <mxCell id="oeyPdxeXq-uHNHkCoqnj-128" value="" style="html=1;jettySize=18;whiteSpace=wrap;fontSize=13;fontFamily=Helvetica;strokeColor=#3d4752;strokeOpacity=100;strokeWidth=3;rounded=1;arcSize=0;edgeStyle=orthogonalEdgeStyle;startArrow=none;endArrow=block;endFill=1;exitX=0.5;exitY=1.017;exitPerimeter=0;entryX=-0.008;entryY=0.5;entryPerimeter=0;lucidId=V2cw7hryna26;" edge="1" parent="WIyWlLk6GJQsqaUBKTNV-1" source="oeyPdxeXq-uHNHkCoqnj-106" target="oeyPdxeXq-uHNHkCoqnj-111">
          <mxGeometry width="100" height="100" relative="1" as="geometry">
            <Array as="points">
              <mxPoint x="158" y="-1689" />
            </Array>
          </mxGeometry>
        </mxCell>
        <mxCell id="oeyPdxeXq-uHNHkCoqnj-129" value="" style="html=1;jettySize=18;whiteSpace=wrap;fontSize=13;fontFamily=Helvetica;strokeColor=#3d4752;strokeOpacity=100;strokeWidth=3;rounded=1;arcSize=0;edgeStyle=orthogonalEdgeStyle;startArrow=none;endArrow=block;endFill=1;exitX=-0.008;exitY=0.5;exitPerimeter=0;entryX=0.5;entryY=-0.017;entryPerimeter=0;lucidId=f4cwZ7TWneDO;" edge="1" parent="WIyWlLk6GJQsqaUBKTNV-1" source="oeyPdxeXq-uHNHkCoqnj-101" target="oeyPdxeXq-uHNHkCoqnj-106">
          <mxGeometry width="100" height="100" relative="1" as="geometry">
            <Array as="points" />
          </mxGeometry>
        </mxCell>
        <mxCell id="oeyPdxeXq-uHNHkCoqnj-130" value="Resíduo" style="html=1;overflow=block;blockSpacing=1;whiteSpace=wrap;fontSize=20;fontFamily=Helvetica;fontColor=#3d4752;align=center;spacing=11.3;strokeColor=#3d4752;strokeOpacity=100;fillOpacity=100;rounded=1;absoluteArcSize=1;arcSize=12;shadow=1;fillColor=#ffffff;strokeWidth=3;lucidId=v6cw4Uoar-NR;" vertex="1" parent="WIyWlLk6GJQsqaUBKTNV-1">
          <mxGeometry x="60" y="-1091" width="180" height="90" as="geometry" />
        </mxCell>
        <mxCell id="oeyPdxeXq-uHNHkCoqnj-131" value="" style="html=1;jettySize=18;whiteSpace=wrap;fontSize=13;fontFamily=Helvetica;strokeColor=#3d4752;strokeOpacity=100;strokeWidth=3;rounded=1;arcSize=0;edgeStyle=orthogonalEdgeStyle;startArrow=none;endArrow=block;endFill=1;exitX=0.5;exitY=1.017;exitPerimeter=0;entryX=1.008;entryY=0.5;entryPerimeter=0;lucidId=06cw5d8bLUtg;" edge="1" parent="WIyWlLk6GJQsqaUBKTNV-1" source="oeyPdxeXq-uHNHkCoqnj-113" target="oeyPdxeXq-uHNHkCoqnj-125">
          <mxGeometry width="100" height="100" relative="1" as="geometry">
            <Array as="points">
              <mxPoint x="967" y="-1184" />
            </Array>
          </mxGeometry>
        </mxCell>
        <mxCell id="oeyPdxeXq-uHNHkCoqnj-132" value="" style="html=1;jettySize=18;whiteSpace=wrap;fontSize=13;fontFamily=Helvetica;strokeColor=#3d4752;strokeOpacity=100;strokeWidth=3;rounded=1;arcSize=0;edgeStyle=orthogonalEdgeStyle;startArrow=none;endArrow=block;endFill=1;exitX=-0.008;exitY=0.5;exitPerimeter=0;entryX=0.5;entryY=-0.017;entryPerimeter=0;lucidId=q7cw8anaiRQP;" edge="1" parent="WIyWlLk6GJQsqaUBKTNV-1" source="oeyPdxeXq-uHNHkCoqnj-119" target="oeyPdxeXq-uHNHkCoqnj-130">
          <mxGeometry width="100" height="100" relative="1" as="geometry">
            <Array as="points" />
          </mxGeometry>
        </mxCell>
        <mxCell id="oeyPdxeXq-uHNHkCoqnj-133" value="Produto pronto" style="html=1;overflow=block;blockSpacing=1;whiteSpace=wrap;fontSize=20;fontFamily=Helvetica;fontColor=#3d4752;align=center;spacing=11.3;strokeColor=#3d4752;strokeOpacity=100;fillOpacity=100;rounded=1;absoluteArcSize=1;arcSize=12;shadow=1;fillColor=#ffffff;strokeWidth=3;lucidId=17cwy.eUG1hP;" vertex="1" parent="WIyWlLk6GJQsqaUBKTNV-1">
          <mxGeometry x="304" y="-944" width="180" height="90" as="geometry" />
        </mxCell>
        <mxCell id="oeyPdxeXq-uHNHkCoqnj-134" value="" style="html=1;jettySize=18;whiteSpace=wrap;fontSize=13;fontFamily=Helvetica;strokeColor=#3d4752;strokeOpacity=100;strokeWidth=3;rounded=1;arcSize=0;edgeStyle=orthogonalEdgeStyle;startArrow=none;endArrow=block;endFill=1;exitX=0.492;exitY=1.017;exitPerimeter=0;entryX=0.5;entryY=-0.015;entryPerimeter=0;lucidId=h8cw9GfB~.yR;" edge="1" parent="WIyWlLk6GJQsqaUBKTNV-1" source="oeyPdxeXq-uHNHkCoqnj-125" target="oeyPdxeXq-uHNHkCoqnj-136">
          <mxGeometry width="100" height="100" relative="1" as="geometry">
            <Array as="points" />
          </mxGeometry>
        </mxCell>
        <mxCell id="oeyPdxeXq-uHNHkCoqnj-135" value="" style="html=1;jettySize=18;whiteSpace=wrap;fontSize=13;fontFamily=Helvetica;strokeColor=#3d4752;strokeOpacity=100;strokeWidth=3;rounded=1;arcSize=0;edgeStyle=orthogonalEdgeStyle;startArrow=none;endArrow=block;endFill=1;exitX=0.496;exitY=1.017;exitPerimeter=0;entryX=0.515;entryY=-0.017;entryPerimeter=0;lucidId=t8cwf42Uu.9X;" edge="1" parent="WIyWlLk6GJQsqaUBKTNV-1" source="oeyPdxeXq-uHNHkCoqnj-119" target="oeyPdxeXq-uHNHkCoqnj-125">
          <mxGeometry width="100" height="100" relative="1" as="geometry">
            <Array as="points" />
          </mxGeometry>
        </mxCell>
        <mxCell id="oeyPdxeXq-uHNHkCoqnj-136" value="Rotulagem e identificação do produto" style="html=1;overflow=block;blockSpacing=1;whiteSpace=wrap;fontSize=20;fontFamily=Helvetica;fontColor=#3d4752;align=center;spacing=11.3;strokeColor=#3d4752;strokeOpacity=100;fillOpacity=100;rounded=1;absoluteArcSize=1;arcSize=12;shadow=1;fillColor=#ffffff;strokeWidth=3;lucidId=V8cwm_4rN-~a;" vertex="1" parent="WIyWlLk6GJQsqaUBKTNV-1">
          <mxGeometry x="303" y="-1091" width="180" height="99" as="geometry" />
        </mxCell>
        <mxCell id="oeyPdxeXq-uHNHkCoqnj-137" value="" style="html=1;jettySize=18;whiteSpace=wrap;fontSize=13;fontFamily=Helvetica;strokeColor=#3d4752;strokeOpacity=100;strokeWidth=3;rounded=1;arcSize=0;edgeStyle=orthogonalEdgeStyle;startArrow=none;endArrow=block;endFill=1;exitX=0.5;exitY=1;entryX=1.008;entryY=0.5;entryPerimeter=0;lucidId=L9cwfXOAUQpj;exitDx=0;exitDy=0;" edge="1" parent="WIyWlLk6GJQsqaUBKTNV-1" source="oeyPdxeXq-uHNHkCoqnj-105" target="oeyPdxeXq-uHNHkCoqnj-136">
          <mxGeometry width="100" height="100" relative="1" as="geometry">
            <Array as="points">
              <mxPoint x="1199" y="-1041" />
            </Array>
            <mxPoint x="1150" y="-1554.4499999999998" as="sourcePoint" />
          </mxGeometry>
        </mxCell>
        <mxCell id="oeyPdxeXq-uHNHkCoqnj-138" value="" style="html=1;jettySize=18;whiteSpace=wrap;fontSize=13;fontFamily=Helvetica;strokeColor=#3d4752;strokeOpacity=100;strokeWidth=3;rounded=1;arcSize=0;edgeStyle=orthogonalEdgeStyle;startArrow=none;endArrow=block;endFill=1;exitX=0.504;exitY=1.015;exitPerimeter=0;entryX=0.5;entryY=-0.017;entryPerimeter=0;lucidId=i-cwdwP2_uW1;" edge="1" parent="WIyWlLk6GJQsqaUBKTNV-1" source="oeyPdxeXq-uHNHkCoqnj-136" target="oeyPdxeXq-uHNHkCoqnj-133">
          <mxGeometry width="100" height="100" relative="1" as="geometry">
            <Array as="points" />
          </mxGeometry>
        </mxCell>
        <mxCell id="oeyPdxeXq-uHNHkCoqnj-139" value="Controle de qualidade" style="html=1;overflow=block;blockSpacing=1;whiteSpace=wrap;fontSize=20;fontFamily=Helvetica;fontColor=#3d4752;align=center;spacing=11.3;strokeColor=#3d4752;strokeOpacity=100;fillOpacity=100;rounded=1;absoluteArcSize=1;arcSize=12;shadow=1;fillColor=#ffffff;strokeWidth=3;lucidId=P-cwliy-7QMT;" vertex="1" parent="WIyWlLk6GJQsqaUBKTNV-1">
          <mxGeometry x="304" y="-807" width="180" height="90" as="geometry" />
        </mxCell>
        <mxCell id="oeyPdxeXq-uHNHkCoqnj-140" value="" style="html=1;jettySize=18;whiteSpace=wrap;fontSize=13;fontFamily=Helvetica;strokeColor=#3d4752;strokeOpacity=100;strokeWidth=3;rounded=1;arcSize=0;edgeStyle=orthogonalEdgeStyle;startArrow=none;endArrow=block;endFill=1;exitX=0.504;exitY=1.017;exitPerimeter=0;entryX=0.5;entryY=-0.017;entryPerimeter=0;lucidId=4-cwZHx8_qPD;" edge="1" parent="WIyWlLk6GJQsqaUBKTNV-1" source="oeyPdxeXq-uHNHkCoqnj-133" target="oeyPdxeXq-uHNHkCoqnj-139">
          <mxGeometry width="100" height="100" relative="1" as="geometry">
            <Array as="points" />
          </mxGeometry>
        </mxCell>
        <mxCell id="oeyPdxeXq-uHNHkCoqnj-141" value="Armazenamento em local apropriado" style="html=1;overflow=block;blockSpacing=1;whiteSpace=wrap;fontSize=20;fontFamily=Helvetica;fontColor=#3d4752;align=center;spacing=11.3;strokeColor=#3d4752;strokeOpacity=100;fillOpacity=100;rounded=1;absoluteArcSize=1;arcSize=12;shadow=1;fillColor=#ffffff;strokeWidth=3;lucidId=k_cw9REtUZ46;" vertex="1" parent="WIyWlLk6GJQsqaUBKTNV-1">
          <mxGeometry x="556" y="-586" width="180" height="99" as="geometry" />
        </mxCell>
        <mxCell id="oeyPdxeXq-uHNHkCoqnj-142" value="Cliente" style="html=1;overflow=block;blockSpacing=1;whiteSpace=wrap;fontSize=20;fontFamily=Helvetica;fontColor=#3d4752;align=center;spacing=11.3;strokeColor=#3d4752;strokeOpacity=100;fillOpacity=100;rounded=1;absoluteArcSize=1;arcSize=12;shadow=1;fillColor=#ffffff;strokeWidth=3;lucidId=L_cwhwvoX.vt;" vertex="1" parent="WIyWlLk6GJQsqaUBKTNV-1">
          <mxGeometry x="303" y="-193" width="180" height="90" as="geometry" />
        </mxCell>
        <mxCell id="oeyPdxeXq-uHNHkCoqnj-143" value="" style="html=1;jettySize=18;whiteSpace=wrap;fontSize=13;fontFamily=Helvetica;strokeColor=#3d4752;strokeOpacity=100;strokeWidth=3;rounded=1;arcSize=0;edgeStyle=orthogonalEdgeStyle;startArrow=none;endArrow=block;endFill=1;exitX=0.519;exitY=1.015;exitPerimeter=0;entryX=1.008;entryY=0.5;entryPerimeter=0;lucidId=l~cw.qssPCAt;" edge="1" parent="WIyWlLk6GJQsqaUBKTNV-1" source="oeyPdxeXq-uHNHkCoqnj-141" target="oeyPdxeXq-uHNHkCoqnj-157">
          <mxGeometry width="100" height="100" relative="1" as="geometry">
            <Array as="points">
              <mxPoint x="649" y="-420" />
            </Array>
          </mxGeometry>
        </mxCell>
        <mxCell id="oeyPdxeXq-uHNHkCoqnj-144" value="" style="html=1;jettySize=18;whiteSpace=wrap;fontSize=13;fontFamily=Helvetica;strokeColor=#3d4752;strokeOpacity=100;strokeWidth=3;rounded=1;arcSize=0;edgeStyle=orthogonalEdgeStyle;startArrow=none;endArrow=block;endFill=1;exitX=0.5;exitY=1.017;exitPerimeter=0;entryX=0.5;entryY=-0.025;entryPerimeter=0;lucidId=y~cwXAivYT4o;" edge="1" parent="WIyWlLk6GJQsqaUBKTNV-1" source="oeyPdxeXq-uHNHkCoqnj-142" target="oeyPdxeXq-uHNHkCoqnj-126">
          <mxGeometry width="100" height="100" relative="1" as="geometry">
            <Array as="points" />
          </mxGeometry>
        </mxCell>
        <mxCell id="oeyPdxeXq-uHNHkCoqnj-145" value="Precisa de armazenamento" style="html=1;overflow=block;blockSpacing=1;whiteSpace=wrap;rhombus;fontSize=20;fontFamily=Helvetica;fontColor=#3d4752;align=center;spacing=11.3;strokeColor=#3d4752;strokeOpacity=100;fillOpacity=100;rounded=1;absoluteArcSize=1;arcSize=12;shadow=1;fillColor=#ffffff;strokeWidth=3;lucidId=cadwjrNsdsuw;" vertex="1" parent="WIyWlLk6GJQsqaUBKTNV-1">
          <mxGeometry x="315" y="-673" width="155" height="121" as="geometry" />
        </mxCell>
        <mxCell id="oeyPdxeXq-uHNHkCoqnj-146" value="" style="html=1;jettySize=18;whiteSpace=wrap;fontSize=16.7;fontFamily=Helvetica;fontStyle=1;strokeColor=#3d4752;strokeOpacity=100;strokeWidth=3;rounded=1;arcSize=0;edgeStyle=orthogonalEdgeStyle;startArrow=none;endArrow=block;endFill=1;exitX=0.5;exitY=0.995;exitPerimeter=0;entryX=0.5;entryY=-0.017;entryPerimeter=0;lucidId=sadw5~J6Ddiy;" edge="1" parent="WIyWlLk6GJQsqaUBKTNV-1" source="oeyPdxeXq-uHNHkCoqnj-145" target="oeyPdxeXq-uHNHkCoqnj-157">
          <mxGeometry width="100" height="100" relative="1" as="geometry">
            <Array as="points" />
          </mxGeometry>
        </mxCell>
        <mxCell id="oeyPdxeXq-uHNHkCoqnj-147" value="NO" style="text;html=1;resizable=0;labelBackgroundColor=default;align=center;verticalAlign=middle;fontStyle=1;fontSize=16.7;" vertex="1" parent="oeyPdxeXq-uHNHkCoqnj-146">
          <mxGeometry relative="1" as="geometry" />
        </mxCell>
        <mxCell id="oeyPdxeXq-uHNHkCoqnj-148" value="" style="html=1;jettySize=18;whiteSpace=wrap;fontSize=13;fontFamily=Helvetica;strokeColor=#3d4752;strokeOpacity=100;strokeWidth=3;rounded=1;arcSize=0;edgeStyle=orthogonalEdgeStyle;startArrow=none;endArrow=block;endFill=1;exitX=0.492;exitY=1.017;exitPerimeter=0;entryX=0.5;entryY=0.005;entryPerimeter=0;lucidId=Nadwuvuy2RRA;" edge="1" parent="WIyWlLk6GJQsqaUBKTNV-1" source="oeyPdxeXq-uHNHkCoqnj-139" target="oeyPdxeXq-uHNHkCoqnj-145">
          <mxGeometry width="100" height="100" relative="1" as="geometry">
            <Array as="points" />
          </mxGeometry>
        </mxCell>
        <mxCell id="oeyPdxeXq-uHNHkCoqnj-149" value="" style="html=1;jettySize=18;whiteSpace=wrap;fontSize=13;fontFamily=Helvetica;strokeColor=#3d4752;strokeOpacity=100;strokeWidth=3;rounded=1;arcSize=0;edgeStyle=orthogonalEdgeStyle;startArrow=none;endArrow=block;endFill=1;exitX=-0.008;exitY=0.5;exitPerimeter=0;entryX=1.008;entryY=0.552;entryPerimeter=0;lucidId=qcdwqQWyb911;" edge="1" parent="WIyWlLk6GJQsqaUBKTNV-1" source="oeyPdxeXq-uHNHkCoqnj-136" target="oeyPdxeXq-uHNHkCoqnj-130">
          <mxGeometry width="100" height="100" relative="1" as="geometry">
            <Array as="points" />
          </mxGeometry>
        </mxCell>
        <mxCell id="oeyPdxeXq-uHNHkCoqnj-150" value="Separação dos resíduos" style="html=1;overflow=block;blockSpacing=1;whiteSpace=wrap;fontSize=20;fontFamily=Helvetica;fontColor=#3d4752;align=center;spacing=11.3;strokeColor=#3d4752;strokeOpacity=100;fillOpacity=100;rounded=1;absoluteArcSize=1;arcSize=12;shadow=1;fillColor=#ffffff;strokeWidth=3;lucidId=RcdwsSbveHl5;" vertex="1" parent="WIyWlLk6GJQsqaUBKTNV-1">
          <mxGeometry x="60" y="-944" width="180" height="90" as="geometry" />
        </mxCell>
        <mxCell id="oeyPdxeXq-uHNHkCoqnj-151" value="" style="html=1;jettySize=18;whiteSpace=wrap;fontSize=13;fontFamily=Helvetica;strokeColor=#3d4752;strokeOpacity=100;strokeWidth=3;rounded=1;arcSize=0;edgeStyle=orthogonalEdgeStyle;startArrow=none;endArrow=block;endFill=1;exitX=0.5;exitY=1.017;exitPerimeter=0;entryX=0.5;entryY=-0.017;entryPerimeter=0;lucidId=.cdw7RzxFD6P;" edge="1" parent="WIyWlLk6GJQsqaUBKTNV-1" source="oeyPdxeXq-uHNHkCoqnj-130" target="oeyPdxeXq-uHNHkCoqnj-150">
          <mxGeometry width="100" height="100" relative="1" as="geometry">
            <Array as="points" />
          </mxGeometry>
        </mxCell>
        <mxCell id="oeyPdxeXq-uHNHkCoqnj-152" value="" style="html=1;jettySize=18;whiteSpace=wrap;fontSize=16.7;fontFamily=Helvetica;fontStyle=1;strokeColor=#3d4752;strokeOpacity=100;strokeWidth=3;rounded=1;arcSize=0;edgeStyle=orthogonalEdgeStyle;startArrow=none;endArrow=block;endFill=1;exitX=0.991;exitY=0.5;exitPerimeter=0;entryX=0.5;entryY=-0.015;entryPerimeter=0;lucidId=egdw_uf-Eksy;" edge="1" parent="WIyWlLk6GJQsqaUBKTNV-1" source="oeyPdxeXq-uHNHkCoqnj-145" target="oeyPdxeXq-uHNHkCoqnj-141">
          <mxGeometry width="100" height="100" relative="1" as="geometry">
            <Array as="points">
              <mxPoint x="646" y="-613" />
            </Array>
          </mxGeometry>
        </mxCell>
        <mxCell id="oeyPdxeXq-uHNHkCoqnj-153" value="YES" style="text;html=1;resizable=0;labelBackgroundColor=default;align=center;verticalAlign=middle;fontStyle=1;fontSize=16.7;" vertex="1" parent="oeyPdxeXq-uHNHkCoqnj-152">
          <mxGeometry x="-0.6616733776927339" relative="1" as="geometry">
            <mxPoint as="offset" />
          </mxGeometry>
        </mxCell>
        <mxCell id="oeyPdxeXq-uHNHkCoqnj-154" value="Destina resíduos para local apropriado" style="html=1;overflow=block;blockSpacing=1;whiteSpace=wrap;fontSize=20;fontFamily=Helvetica;fontColor=#3d4752;align=center;spacing=11.3;strokeColor=#3d4752;strokeOpacity=100;fillOpacity=100;rounded=1;absoluteArcSize=1;arcSize=12;shadow=1;fillColor=#ffffff;strokeWidth=3;lucidId=GldwOE7hstkG;" vertex="1" parent="WIyWlLk6GJQsqaUBKTNV-1">
          <mxGeometry x="60" y="-812" width="180" height="99" as="geometry" />
        </mxCell>
        <mxCell id="oeyPdxeXq-uHNHkCoqnj-155" value="" style="html=1;jettySize=18;whiteSpace=wrap;fontSize=13;fontFamily=Helvetica;strokeColor=#3d4752;strokeOpacity=100;strokeWidth=3;rounded=1;arcSize=0;edgeStyle=orthogonalEdgeStyle;startArrow=none;endArrow=block;endFill=1;exitX=0.5;exitY=1.017;exitPerimeter=0;entryX=0.5;entryY=-0.015;entryPerimeter=0;lucidId=bmdwN1cvjdyl;" edge="1" parent="WIyWlLk6GJQsqaUBKTNV-1" source="oeyPdxeXq-uHNHkCoqnj-150" target="oeyPdxeXq-uHNHkCoqnj-154">
          <mxGeometry width="100" height="100" relative="1" as="geometry">
            <Array as="points" />
          </mxGeometry>
        </mxCell>
        <mxCell id="oeyPdxeXq-uHNHkCoqnj-156" value="" style="html=1;jettySize=18;whiteSpace=wrap;fontSize=13;fontFamily=Helvetica;strokeColor=#3d4752;strokeOpacity=100;strokeWidth=3;rounded=1;arcSize=0;edgeStyle=orthogonalEdgeStyle;startArrow=none;endArrow=block;endFill=1;exitX=1.008;exitY=0.5;exitPerimeter=0;entryX=-0.008;entryY=0.5;entryPerimeter=0;lucidId=kodwgV..Vlv~;" edge="1" parent="WIyWlLk6GJQsqaUBKTNV-1" source="oeyPdxeXq-uHNHkCoqnj-154" target="oeyPdxeXq-uHNHkCoqnj-133">
          <mxGeometry width="100" height="100" relative="1" as="geometry">
            <Array as="points">
              <mxPoint x="270" y="-763" />
              <mxPoint x="270" y="-899" />
            </Array>
          </mxGeometry>
        </mxCell>
        <mxCell id="oeyPdxeXq-uHNHkCoqnj-157" value="Transporte com veículo" style="html=1;overflow=block;blockSpacing=1;whiteSpace=wrap;fontSize=20;fontFamily=Helvetica;fontColor=#3d4752;align=center;spacing=11.3;strokeColor=#3d4752;strokeOpacity=100;fillOpacity=100;rounded=1;absoluteArcSize=1;arcSize=12;shadow=1;fillColor=#ffffff;strokeWidth=3;lucidId=pp1DwR57AiYW;" vertex="1" parent="WIyWlLk6GJQsqaUBKTNV-1">
          <mxGeometry x="303" y="-465" width="180" height="90" as="geometry" />
        </mxCell>
        <mxCell id="oeyPdxeXq-uHNHkCoqnj-158" value="" style="html=1;jettySize=18;whiteSpace=wrap;fontSize=13;fontFamily=Helvetica;strokeColor=#3d4752;strokeOpacity=100;strokeWidth=3;rounded=1;arcSize=0;edgeStyle=orthogonalEdgeStyle;startArrow=none;endArrow=block;endFill=1;exitX=0.5;exitY=1.017;exitPerimeter=0;entryX=0.5;entryY=-0.015;entryPerimeter=0;lucidId=6p1DJFL8DuUD;" edge="1" parent="WIyWlLk6GJQsqaUBKTNV-1" source="oeyPdxeXq-uHNHkCoqnj-157" target="oeyPdxeXq-uHNHkCoqnj-161">
          <mxGeometry width="100" height="100" relative="1" as="geometry">
            <Array as="points" />
          </mxGeometry>
        </mxCell>
        <mxCell id="oeyPdxeXq-uHNHkCoqnj-159" value="Emissão de gases no transporte" style="html=1;overflow=block;blockSpacing=1;whiteSpace=wrap;fontSize=20;fontFamily=Helvetica;fontColor=#3d4752;align=center;spacing=11.3;strokeColor=#3d4752;strokeOpacity=100;fillOpacity=100;rounded=1;absoluteArcSize=1;arcSize=12;shadow=1;fillColor=#ffffff;strokeWidth=3;lucidId=Sq1DK2M872pH;" vertex="1" parent="WIyWlLk6GJQsqaUBKTNV-1">
          <mxGeometry x="60" y="-337" width="180" height="99" as="geometry" />
        </mxCell>
        <mxCell id="oeyPdxeXq-uHNHkCoqnj-160" value="" style="html=1;jettySize=18;whiteSpace=wrap;fontSize=13;fontFamily=Helvetica;strokeColor=#3d4752;strokeOpacity=100;strokeWidth=3;rounded=1;arcSize=0;edgeStyle=orthogonalEdgeStyle;startArrow=none;endArrow=block;endFill=1;exitX=-0.008;exitY=0.5;exitPerimeter=0;entryX=0.5;entryY=-0.015;entryPerimeter=0;lucidId=fr1Dqpi7zHJs;" edge="1" parent="WIyWlLk6GJQsqaUBKTNV-1" source="oeyPdxeXq-uHNHkCoqnj-157" target="oeyPdxeXq-uHNHkCoqnj-159">
          <mxGeometry width="100" height="100" relative="1" as="geometry">
            <Array as="points" />
          </mxGeometry>
        </mxCell>
        <mxCell id="oeyPdxeXq-uHNHkCoqnj-161" value="Efeito indesejado para a poluição atmosférica" style="html=1;overflow=block;blockSpacing=1;whiteSpace=wrap;fontSize=20;fontFamily=Helvetica;fontColor=#3d4752;align=center;spacing=11.3;strokeColor=#3d4752;strokeOpacity=100;fillOpacity=100;rounded=1;absoluteArcSize=1;arcSize=12;shadow=1;fillColor=#ffffff;strokeWidth=3;lucidId=mC1DxNlHsY0v;" vertex="1" parent="WIyWlLk6GJQsqaUBKTNV-1">
          <mxGeometry x="303" y="-337" width="180" height="99" as="geometry" />
        </mxCell>
        <mxCell id="oeyPdxeXq-uHNHkCoqnj-162" value="" style="html=1;jettySize=18;whiteSpace=wrap;fontSize=13;fontFamily=Helvetica;strokeColor=#3d4752;strokeOpacity=100;strokeWidth=3;rounded=1;arcSize=0;edgeStyle=orthogonalEdgeStyle;startArrow=none;endArrow=block;endFill=1;exitX=0.5;exitY=1;lucidId=6p1DJFL8DuUD;entryX=0.5;entryY=0;entryDx=0;entryDy=0;exitDx=0;exitDy=0;" edge="1" parent="WIyWlLk6GJQsqaUBKTNV-1" source="oeyPdxeXq-uHNHkCoqnj-161" target="oeyPdxeXq-uHNHkCoqnj-142">
          <mxGeometry width="100" height="100" relative="1" as="geometry">
            <Array as="points" />
            <mxPoint x="403" y="-363" as="sourcePoint" />
            <mxPoint x="500" y="-328" as="targetPoint" />
          </mxGeometry>
        </mxCell>
        <mxCell id="oeyPdxeXq-uHNHkCoqnj-163" value="" style="html=1;jettySize=18;whiteSpace=wrap;fontSize=13;fontFamily=Helvetica;strokeColor=#3d4752;strokeOpacity=100;strokeWidth=3;rounded=1;arcSize=0;edgeStyle=orthogonalEdgeStyle;startArrow=none;endArrow=block;endFill=1;exitX=1;exitY=0.5;entryX=0;entryY=0.5;lucidId=6p1DJFL8DuUD;exitDx=0;exitDy=0;entryDx=0;entryDy=0;" edge="1" parent="WIyWlLk6GJQsqaUBKTNV-1" source="oeyPdxeXq-uHNHkCoqnj-159" target="oeyPdxeXq-uHNHkCoqnj-161">
          <mxGeometry width="100" height="100" relative="1" as="geometry">
            <Array as="points" />
            <mxPoint x="413" y="-353" as="sourcePoint" />
            <mxPoint x="413" y="-318" as="targetPoint" />
          </mxGeometry>
        </mxCell>
        <mxCell id="oeyPdxeXq-uHNHkCoqnj-165" value="Álcool de cereais (2,5 - 100) ml" style="html=1;overflow=block;blockSpacing=1;whiteSpace=wrap;fontSize=20;fontFamily=Helvetica;fontColor=#3d4752;align=center;spacing=11.3;strokeColor=#3d4752;strokeOpacity=100;fillOpacity=100;rounded=1;absoluteArcSize=1;arcSize=12;shadow=1;fillColor=#ffffff;strokeWidth=3;lucidId=nIcwTGv3Z-u6;" vertex="1" parent="WIyWlLk6GJQsqaUBKTNV-1">
          <mxGeometry x="524" y="-1898.53" width="310" height="51" as="geometry" />
        </mxCell>
        <mxCell id="oeyPdxeXq-uHNHkCoqnj-166" value="Água (2,5 - 700) ml" style="html=1;overflow=block;blockSpacing=1;whiteSpace=wrap;fontSize=20;fontFamily=Helvetica;fontColor=#3d4752;align=center;spacing=11.3;strokeColor=#3d4752;strokeOpacity=100;fillOpacity=100;rounded=1;absoluteArcSize=1;arcSize=12;shadow=1;fillColor=#ffffff;strokeWidth=3;lucidId=nIcwTGv3Z-u6;" vertex="1" parent="WIyWlLk6GJQsqaUBKTNV-1">
          <mxGeometry x="524" y="-1805" width="310" height="51" as="geometry" />
        </mxCell>
        <mxCell id="oeyPdxeXq-uHNHkCoqnj-167" value="" style="html=1;jettySize=18;whiteSpace=wrap;fontSize=13;fontFamily=Helvetica;strokeColor=#3d4752;strokeOpacity=100;strokeWidth=3;rounded=1;arcSize=0;edgeStyle=orthogonalEdgeStyle;startArrow=none;endArrow=block;endFill=1;exitX=0.5;exitY=1;entryX=1;entryY=0.5;lucidId=cTcwrEz4fAhM;entryDx=0;entryDy=0;exitDx=0;exitDy=0;" edge="1" parent="WIyWlLk6GJQsqaUBKTNV-1" source="oeyPdxeXq-uHNHkCoqnj-166" target="oeyPdxeXq-uHNHkCoqnj-111">
          <mxGeometry width="100" height="100" relative="1" as="geometry">
            <Array as="points" />
            <mxPoint x="407" y="-1813" as="sourcePoint" />
            <mxPoint x="407" y="-1726" as="targetPoint" />
          </mxGeometry>
        </mxCell>
        <mxCell id="oeyPdxeXq-uHNHkCoqnj-168" value="" style="html=1;jettySize=18;whiteSpace=wrap;fontSize=13;fontFamily=Helvetica;strokeColor=#3d4752;strokeOpacity=100;strokeWidth=3;rounded=1;arcSize=0;edgeStyle=orthogonalEdgeStyle;startArrow=none;endArrow=block;endFill=1;exitX=0.5;exitY=1;entryX=0.5;entryY=0;lucidId=9Rcwi3bHZadr;exitDx=0;exitDy=0;entryDx=0;entryDy=0;" edge="1" parent="WIyWlLk6GJQsqaUBKTNV-1" source="oeyPdxeXq-uHNHkCoqnj-104" target="oeyPdxeXq-uHNHkCoqnj-165">
          <mxGeometry width="100" height="100" relative="1" as="geometry">
            <Array as="points" />
            <mxPoint x="408" y="-1980" as="sourcePoint" />
            <mxPoint x="408" y="-1906" as="targetPoint" />
          </mxGeometry>
        </mxCell>
        <mxCell id="oeyPdxeXq-uHNHkCoqnj-169" value="" style="html=1;jettySize=18;whiteSpace=wrap;fontSize=13;fontFamily=Helvetica;strokeColor=#3d4752;strokeOpacity=100;strokeWidth=3;rounded=1;arcSize=0;edgeStyle=orthogonalEdgeStyle;startArrow=none;endArrow=block;endFill=1;entryX=0.5;entryY=0;lucidId=9Rcwi3bHZadr;entryDx=0;entryDy=0;exitX=0.5;exitY=1;exitDx=0;exitDy=0;" edge="1" parent="WIyWlLk6GJQsqaUBKTNV-1" source="oeyPdxeXq-uHNHkCoqnj-165" target="oeyPdxeXq-uHNHkCoqnj-166">
          <mxGeometry width="100" height="100" relative="1" as="geometry">
            <Array as="points" />
            <mxPoint x="700" y="-1834" as="sourcePoint" />
            <mxPoint x="689" y="-1890" as="targetPoint" />
          </mxGeometry>
        </mxCell>
      </root>
    </mxGraphModel>
  </diagram>
</mxfile>
